# Blender 4.3.2
# www.blender.org
mtllib hanger.mtl
o Cube
v -1.000000 3.921569 1.000000
v -1.000000 5.921569 1.000000
v -1.000000 3.921569 -1.000000
v -1.000000 5.921569 -1.000000
v 0.000000 3.921569 -1.000000
v 0.000000 5.921569 -1.000000
v 0.000000 3.921569 1.000000
v 0.000000 5.921569 1.000000
v -2.044815 1.897303 1.000000
v -2.044815 1.897303 -1.000000
v -1.372398 1.061205 -1.000000
v -1.372398 1.061205 1.000000
v -4.333122 0.519506 1.000000
v -4.333123 0.519507 -1.000000
v -4.033127 -0.434434 -1.000000
v -4.033127 -0.434434 1.000000
v -5.512924 0.125146 1.000000
v -5.512925 0.125147 -1.000000
v -5.507754 -0.874840 -1.000000
v -5.507754 -0.874840 1.000000
v -8.239741 0.039244 0.856396
v -8.239742 0.039245 -0.856395
v -8.235313 -0.817140 -0.856395
v -8.235313 -0.817140 0.856396
v -9.329869 -0.052160 0.684865
v -9.329870 -0.052159 -0.684863
v -9.326328 -0.737015 -0.684863
v -9.326328 -0.737015 0.684865
v -9.440580 -0.250229 0.289877
v -9.440580 -0.250228 -0.289875
v -9.439081 -0.540102 -0.289875
v -9.439081 -0.540102 0.289877
v -0.993258 1.851413 -1.000000
v -1.756173 2.456529 -1.000000
v -1.756173 2.456529 1.000000
v -0.993257 1.851413 1.000000
v 0.000000 1.056286 -1.000001
v 0.000000 1.056286 0.999999
v 0.000000 1.846494 -1.000000
v 0.000000 1.846494 0.999999
v 1.000000 3.921569 1.000000
v 1.000000 5.921569 1.000000
v 1.000000 3.921569 -1.000000
v 1.000000 5.921569 -1.000000
v 2.044815 1.897303 1.000000
v 2.044815 1.897303 -1.000000
v 1.372398 1.061205 -1.000000
v 1.372398 1.061205 1.000000
v 4.333122 0.519506 1.000000
v 4.333123 0.519507 -1.000000
v 4.033127 -0.434434 -1.000000
v 4.033127 -0.434434 1.000000
v 5.512924 0.125146 1.000000
v 5.512925 0.125147 -1.000000
v 5.507754 -0.874840 -1.000000
v 5.507754 -0.874840 1.000000
v 8.239741 0.039244 0.856396
v 8.239742 0.039245 -0.856395
v 8.235313 -0.817140 -0.856395
v 8.235313 -0.817140 0.856396
v 9.329869 -0.052160 0.684865
v 9.329870 -0.052159 -0.684863
v 9.326328 -0.737015 -0.684863
v 9.326328 -0.737015 0.684865
v 9.440580 -0.250229 0.289877
v 9.440580 -0.250228 -0.289875
v 9.439081 -0.540102 -0.289875
v 9.439081 -0.540102 0.289877
v 0.993258 1.851413 -1.000000
v 1.756173 2.456529 -1.000000
v 1.756173 2.456529 1.000000
v 0.993257 1.851413 1.000000
vn -1.0000 -0.0000 -0.0000
vn -0.0000 -0.0000 1.0000
vn -0.0000 1.0000 -0.0000
vn -0.0000 -0.0000 -1.0000
vn 0.4900 -0.8717 -0.0000
vn -0.8886 0.4587 -0.0000
vn -0.5158 0.8567 -0.0000
vn -0.0315 0.9995 -0.0000
vn -0.3170 0.9484 -0.0000
vn 0.2862 -0.9582 -0.0000
vn -0.0732 -0.9973 -0.0000
vn -0.0211 -0.9998 -0.0000
vn -0.0526 -0.0003 -0.9986
vn -0.0526 -0.0003 0.9986
vn -0.9622 -0.0050 0.2722
vn -0.1554 -0.0008 -0.9879
vn -0.1554 -0.0008 0.9879
vn -0.0836 0.9965 -0.0000
vn -1.0000 -0.0052 -0.0000
vn -0.8729 0.4879 -0.0000
vn -0.8678 -0.4969 -0.0000
vn -0.9622 -0.0050 -0.2722
vn 0.9016 -0.4326 -0.0000
vn -0.0036 -1.0000 -0.0000
vn 0.0050 1.0000 -0.0000
vn 1.0000 -0.0000 -0.0000
vn -0.4900 -0.8717 -0.0000
vn 0.8886 0.4587 -0.0000
vn 0.5158 0.8567 -0.0000
vn 0.0315 0.9995 -0.0000
vn 0.3170 0.9484 -0.0000
vn -0.2862 -0.9582 -0.0000
vn 0.0732 -0.9973 -0.0000
vn 0.0211 -0.9998 -0.0000
vn 0.0526 -0.0003 -0.9986
vn 0.0526 -0.0003 0.9986
vn 0.9622 -0.0050 0.2722
vn 0.1554 -0.0008 -0.9879
vn 0.1554 -0.0008 0.9879
vn 0.0836 0.9965 -0.0000
vn 1.0000 -0.0052 -0.0000
vn 0.8729 0.4879 -0.0000
vn 0.8678 -0.4969 -0.0000
vn 0.9622 -0.0050 -0.2722
vn -0.9016 -0.4326 -0.0000
vn 0.0036 -1.0000 -0.0000
vn -0.0050 1.0000 -0.0000
vt 0.795844 0.842224
vt 0.795844 0.740973
vt 0.897922 0.740973
vt 0.897922 0.842224
vt 0.448961 0.476188
vt 0.346883 0.476188
vt 0.346883 0.425149
vt 0.448961 0.425149
vt 0.948777 0.310726
vt 0.999633 0.310726
vt 0.999633 0.412804
vt 0.948777 0.412804
vt 0.176853 0.565822
vt 0.207737 0.526883
vt 0.248069 0.546234
vt 0.205395 0.580554
vt 0.102078 0.527227
vt -0.000000 0.527227
vt -0.000000 0.476188
vt 0.102078 0.476188
vt 0.795844 0.374290
vt 0.693765 0.374290
vt 0.693765 0.259501
vt 0.795844 0.259501
vt 0.795844 0.921295
vt 0.897922 0.921295
vt 0.897922 0.951478
vt 0.795844 0.951478
vt 0.554620 0.425493
vt 0.594951 0.406142
vt 0.595202 0.476188
vt 0.554871 0.476188
vt 0.523735 0.386555
vt 0.552278 0.371823
vt 0.671287 0.270341
vt 0.622599 0.255029
vt 0.642727 0.194813
vt 0.693765 0.195077
vt 0.324405 0.682035
vt 0.275716 0.697347
vt 0.795844 0.630556
vt 0.897922 0.630556
vt 0.897922 0.572261
vt 0.795844 0.572261
vt 0.803173 0.433958
vt 0.890592 0.433958
vt 0.693765 0.191356
vt 0.795844 0.191356
vt 0.346883 0.757299
vt 0.295844 0.757563
vt 0.788514 0.055148
vt 0.701095 0.055148
vt 0.709850 -0.000000
vt 0.779759 -0.000000
vt 0.343939 0.896511
vt 0.300229 0.896737
vt 0.647112 0.055639
vt 0.690821 0.055865
vt 0.897922 0.686870
vt 0.932570 0.686870
vt 0.921825 0.707030
vt 0.907160 0.707030
vt 0.339850 0.952196
vt 0.304896 0.952376
vt 0.651779 0.000000
vt 0.686733 0.000181
vt 0.811928 0.378914
vt 0.881838 0.378914
vt 0.921825 0.736620
vt 0.907160 0.736620
vt 0.932570 0.756780
vt 0.897922 0.756780
vt 0.897922 0.208022
vt 1.000000 0.208022
vt 1.000000 0.310726
vt 0.897922 0.310726
vt 0.795844 0.442544
vt 0.693765 0.442544
vt 0.207988 0.476188
vt 0.248320 0.476188
vt 0.998948 0.412804
vt 0.998948 0.514882
vt 0.948413 0.514882
vt 0.948413 0.412804
vt 1.000000 0.101923
vt 0.897922 0.101923
vt 0.897922 0.000000
vt 1.000000 0.000000
vt 0.448961 0.527227
vt 0.346883 0.527227
vt 0.897922 0.412804
vt 0.176853 0.386555
vt 0.205395 0.371823
vt 0.248069 0.406142
vt 0.207737 0.425493
vt 0.102078 0.425149
vt -0.000000 0.425149
vt 0.795844 0.510683
vt 0.795844 0.660324
vt 0.693765 0.660324
vt 0.693765 0.510683
vt 1.000000 0.178711
vt 1.000000 0.208022
vt 0.897922 0.178711
vt 0.554620 0.526883
vt 0.594951 0.546234
vt 0.552278 0.580554
vt 0.523735 0.565822
vt 0.671287 0.682035
vt 0.693765 0.757299
vt 0.642727 0.757563
vt 0.622599 0.697347
vt 0.275716 0.255029
vt 0.324405 0.270341
vt 0.897922 0.000000
vt 0.897922 0.122330
vt 0.795844 0.122330
vt 0.795844 0.000000
vt 0.897922 0.184034
vt 0.890592 0.323080
vt 0.803173 0.323080
vt 0.795844 0.184034
vt 0.795843 0.738732
vt 0.693765 0.738732
vt 0.295844 0.194813
vt 0.346883 0.195077
vt 0.788514 0.873596
vt 0.779759 0.926876
vt 0.709849 0.926876
vt 0.701095 0.873596
vt 0.300230 0.055639
vt 0.343939 0.055865
vt 0.690821 0.896511
vt 0.647112 0.896737
vt 0.897922 0.686870
vt 0.907640 0.666711
vt 0.922408 0.666711
vt 0.932813 0.686870
vt 0.304896 0.000000
vt 0.339850 0.000181
vt 0.686733 0.952196
vt 0.651779 0.952376
vt 0.881838 0.378914
vt 0.811928 0.378914
vt 0.922408 0.637120
vt 0.907640 0.637120
vt 0.932813 0.616961
vt 0.897922 0.616961
vt 0.996285 0.616961
vt 0.897922 0.616961
vt 0.897922 0.514882
vt 0.996285 0.514882
vt 0.897922 0.412804
vt 0.897922 0.514883
s 0
usemtl Material.001
f 1/1/1 2/2/1 4/3/1 3/4/1
f 7/5/2 8/6/2 2/7/2 1/8/2
f 6/9/3 4/10/3 2/11/3 8/12/3
f 34/13/4 33/14/4 11/15/4 10/16/4
f 3/17/4 4/18/4 6/19/4 5/20/4
f 11/21/5 12/22/5 16/23/5 15/24/5
f 35/25/6 34/26/6 10/27/6 9/28/6
f 36/29/2 12/30/2 38/31/2 40/32/2
f 36/29/2 35/33/2 9/34/2 12/30/2
f 16/35/2 13/36/2 17/37/2 20/38/2
f 10/16/4 11/15/4 15/39/4 14/40/4
f 12/30/2 9/34/2 13/36/2 16/35/2
f 9/3/7 10/2/7 14/41/7 13/42/7
f 17/43/8 18/44/8 22/45/8 21/46/8
f 13/42/9 14/41/9 18/44/9 17/43/9
f 15/24/10 16/23/10 20/47/10 19/48/10
f 14/40/4 15/39/4 19/49/4 18/50/4
f 23/51/11 24/52/11 28/53/11 27/54/11
f 19/48/12 20/47/12 24/52/12 23/51/12
f 18/50/13 19/49/13 23/55/13 22/56/13
f 20/38/14 17/37/14 21/57/14 24/58/14
f 28/59/15 25/60/15 29/61/15 32/62/15
f 22/56/16 23/55/16 27/63/16 26/64/16
f 24/58/17 21/57/17 25/65/17 28/66/17
f 21/46/18 22/45/18 26/67/18 25/68/18
f 30/69/19 31/70/19 32/62/19 29/61/19
f 25/60/20 26/71/20 30/69/20 29/61/20
f 27/72/21 28/59/21 32/62/21 31/70/21
f 26/71/22 27/72/22 31/70/22 30/69/22
f 7/5/2 1/8/2 35/33/2 36/29/2
f 5/73/23 7/74/23 36/75/23 33/76/23
f 1/1/6 3/4/6 34/26/6 35/25/6
f 3/17/4 5/20/4 33/14/4 34/13/4
f 12/22/24 11/21/24 37/77/24 38/78/24
f 11/15/4 33/14/4 39/79/4 37/80/4
f 33/81/25 36/82/25 40/83/25 39/84/25
f 41/85/26 43/86/26 44/87/26 42/88/26
f 7/5/2 41/89/2 42/90/2 8/6/2
f 6/9/3 8/12/3 42/91/3 44/76/3
f 70/92/4 46/93/4 47/94/4 69/95/4
f 43/96/4 5/20/4 6/19/4 44/97/4
f 47/98/27 51/99/27 52/100/27 48/101/27
f 71/102/28 45/103/28 46/73/28 70/104/28
f 72/105/2 40/32/2 38/31/2 48/106/2
f 72/105/2 48/106/2 45/107/2 71/108/2
f 52/109/2 56/110/2 53/111/2 49/112/2
f 46/93/4 50/113/4 51/114/4 47/94/4
f 48/106/2 52/109/2 49/112/2 45/107/2
f 45/115/29 49/116/29 50/117/29 46/118/29
f 53/119/30 57/120/30 58/121/30 54/122/30
f 49/116/31 53/119/31 54/122/31 50/117/31
f 51/99/32 55/123/32 56/124/32 52/100/32
f 50/113/4 54/125/4 55/126/4 51/114/4
f 59/127/33 63/128/33 64/129/33 60/130/33
f 55/123/34 59/127/34 60/130/34 56/124/34
f 54/125/35 58/131/35 59/132/35 55/126/35
f 56/110/36 60/133/36 57/134/36 53/111/36
f 64/135/37 68/136/37 65/137/37 61/138/37
f 58/131/38 62/139/38 63/140/38 59/132/38
f 60/133/39 64/141/39 61/142/39 57/134/39
f 57/120/40 61/143/40 62/144/40 58/121/40
f 66/145/41 65/137/41 68/136/41 67/146/41
f 61/138/42 65/137/42 66/145/42 62/147/42
f 63/148/43 67/146/43 68/136/43 64/135/43
f 62/147/44 66/145/44 67/146/44 63/148/44
f 7/5/2 72/105/2 71/108/2 41/89/2
f 5/149/45 69/150/45 72/151/45 7/152/45
f 41/85/28 71/102/28 70/104/28 43/86/28
f 43/96/4 70/92/4 69/95/4 5/20/4
f 48/101/46 38/78/46 37/77/46 47/98/46
f 47/94/4 37/80/4 39/79/4 69/95/4
f 69/153/47 39/84/47 40/83/47 72/154/47
